<svg width="545" height="364" xmlns="http://www.w3.org/2000/svg" xmlns:xlink="http://www.w3.org/1999/xlink" viewBox="0 0 366.17 244.67"><defs><style>.cls-1{fill:url(#Dégradé_sans_nom_31);}.cls-2{fill:url(#Dégradé_sans_nom_31-2);}.cls-3{fill:url(#Dégradé_sans_nom_7);}.cls-4{fill:url(#Dégradé_sans_nom_29);}.cls-5{fill:url(#Dégradé_sans_nom_29-2);}.cls-6{fill:url(#Dégradé_sans_nom_13);}.cls-7{fill:url(#Dégradé_sans_nom_7-2);}.cls-8{fill:url(#Dégradé_sans_nom_31-3);}.cls-9{fill:url(#Dégradé_sans_nom_7-3);}.cls-10{fill:url(#Dégradé_sans_nom_17);}.cls-11{fill:url(#Dégradé_sans_nom_17-2);}.cls-12{fill:url(#Dégradé_sans_nom_17-3);}.cls-13{fill:url(#Dégradé_sans_nom_7-4);}.cls-14{fill:#afdbe2;}.cls-15{fill:#5cbfd6;}.cls-16{fill:url(#Dégradé_sans_nom_16);}.cls-17{fill:url(#Dégradé_sans_nom_16-2);}</style><linearGradient id="Dégradé_sans_nom_31" x1="240.95" y1="151.58" x2="240.95" y2="87.47" gradientUnits="userSpaceOnUse"><stop offset="0.03" stop-color="#82c8d8"/><stop offset="0.21" stop-color="#7ec6d8"/><stop offset="0.42" stop-color="#70c2d6" stop-opacity="0.98"/><stop offset="0.63" stop-color="#5bbbd4" stop-opacity="0.96"/><stop offset="0.86" stop-color="#3db1d0" stop-opacity="0.92"/><stop offset="1" stop-color="#26a9ce" stop-opacity="0.9"/></linearGradient><linearGradient id="Dégradé_sans_nom_31-2" x1="96.44" y1="151.58" x2="96.44" y2="44.58" xlink:href="#Dégradé_sans_nom_31"/><linearGradient id="Dégradé_sans_nom_7" x1="183.08" y1="186.84" x2="183.08" y2="171.34" gradientUnits="userSpaceOnUse"><stop offset="0" stop-color="#82c8d8"/><stop offset="1" stop-color="#afdbe2"/></linearGradient><linearGradient id="Dégradé_sans_nom_29" x1="30.08" y1="244.67" x2="30.08" y2="186.84" gradientUnits="userSpaceOnUse"><stop offset="0.05" stop-color="#82c8d8" stop-opacity="0"/><stop offset="0.6" stop-color="#4eb6d2" stop-opacity="0.51"/><stop offset="1" stop-color="#26a9ce" stop-opacity="0.9"/></linearGradient><linearGradient id="Dégradé_sans_nom_29-2" x1="336.08" y1="244.67" x2="336.08" y2="186.84" xlink:href="#Dégradé_sans_nom_29"/><linearGradient id="Dégradé_sans_nom_13" x1="118.57" y1="112.87" x2="118.57" y2="171.72" gradientUnits="userSpaceOnUse"><stop offset="0.03" stop-color="#82c8d8"/><stop offset="0.23" stop-color="#7dc6d7"/><stop offset="0.46" stop-color="#70c1d5"/><stop offset="0.7" stop-color="#59b9d2"/><stop offset="0.95" stop-color="#3aadcd"/><stop offset="1" stop-color="#3ac"/></linearGradient><linearGradient id="Dégradé_sans_nom_7-2" x1="118.57" y1="152.83" x2="118.57" y2="134.35" xlink:href="#Dégradé_sans_nom_7"/><linearGradient id="Dégradé_sans_nom_31-3" x1="240.57" y1="112.87" x2="240.57" y2="171.72" xlink:href="#Dégradé_sans_nom_31"/><linearGradient id="Dégradé_sans_nom_7-3" x1="240.57" y1="152.83" x2="240.57" y2="134.35" xlink:href="#Dégradé_sans_nom_7"/><linearGradient id="Dégradé_sans_nom_17" x1="41.58" y1="152.78" x2="41.58" y2="165.34" gradientUnits="userSpaceOnUse"><stop offset="0.03" stop-color="#82c8d8"/><stop offset="0.24" stop-color="#73c3d6"/><stop offset="0.65" stop-color="#4cb6d2"/><stop offset="1" stop-color="#26a9ce"/></linearGradient><linearGradient id="Dégradé_sans_nom_17-2" x1="30.97" y1="147.9" x2="30.97" y2="171.27" xlink:href="#Dégradé_sans_nom_17"/><linearGradient id="Dégradé_sans_nom_17-3" x1="2408.69" y1="141.05" x2="2408.69" y2="171.2" gradientTransform="matrix(-1, 0, 0, 1, 2732.19, 0)" xlink:href="#Dégradé_sans_nom_17"/><linearGradient id="Dégradé_sans_nom_7-4" x1="46.19" y1="51.07" x2="46.19" y2="14.11" xlink:href="#Dégradé_sans_nom_7"/><linearGradient id="Dégradé_sans_nom_16" x1="118.59" y1="47.41" x2="118.59" gradientUnits="userSpaceOnUse"><stop offset="0.03" stop-color="#82c8d8"/><stop offset="0.21" stop-color="#7dc6d7"/><stop offset="0.42" stop-color="#70c2d6"/><stop offset="0.65" stop-color="#59bad4"/><stop offset="0.88" stop-color="#3ab0d0"/><stop offset="1" stop-color="#26a9ce"/></linearGradient><linearGradient id="Dégradé_sans_nom_16-2" x1="238.99" y1="104.65" x2="238.99" y2="11.23" xlink:href="#Dégradé_sans_nom_16"/></defs><title>learners</title><g id="Calque_2" data-name="Calque 2"><g id="Calque_1-2" data-name="Calque 1"><path class="cls-1" d="M201,151.58V125.72a38.37,38.37,0,0,1,38.25-38.25h3.47a38.37,38.37,0,0,1,38.25,38.25v25.86"/><path class="cls-2" d="M121.3,87.47h-3.47a38,38,0,0,0-22.33,7.26A68,68,0,0,1,80.63,89q-3.8-2-7.4-4.37c-1.1-.72-2.17-1.5-3.26-2.24L69.35,82c-7.87-6.36-14.87-17-15-27.27-.21-13.5-21.21-13.54-21,0,.44,27.86,23.57,48.79,48.61,57.8a37.91,37.91,0,0,0-2.36,13.2v25.86h80V125.72A38.37,38.37,0,0,0,121.3,87.47ZM69.34,82c-.93-.64-.21-.16,0,0Z"/><rect class="cls-3" y="171.34" width="366.17" height="15.5" rx="7.75" ry="7.75"/><rect class="cls-4" x="19.33" y="186.84" width="21.5" height="57.83"/><rect class="cls-5" x="325.33" y="186.84" width="21.5" height="57.83"/><rect class="cls-6" x="68.33" y="112.87" width="100.48" height="58.85" rx="14" ry="14"/><circle class="cls-7" cx="118.57" cy="143.59" r="9.24"/><rect class="cls-8" x="190.33" y="112.87" width="100.48" height="58.85" rx="14" ry="14"/><circle class="cls-9" cx="240.57" cy="143.59" r="9.24"/><path class="cls-10" d="M41.58,165.34a6.28,6.28,0,1,1,6.28-6.28A6.29,6.29,0,0,1,41.58,165.34Zm0-9.42a3.14,3.14,0,1,0,3.14,3.14A3.14,3.14,0,0,0,41.58,155.92Z"/><path class="cls-11" d="M20.8,171.27V150a2.1,2.1,0,0,1,2.09-2.09H39A2.1,2.1,0,0,1,41.14,150v21.28"/><path class="cls-12" d="M302.42,171.1a58.24,58.24,0,0,0,20.11-3.33l.78,3.43h3v-.41a.61.61,0,0,0-.6-.6c-.52,0-.56-1.27-.56-2a8.26,8.26,0,0,1,1.34-2.72l.75,3.8,1.45,1.94h2.46v-.41a.61.61,0,0,0-.6-.6c-.75,0-.67-.71-1.3-1.94-.22-.82,1-3.88.82-6.52a16,16,0,0,0,4-5.29,2.48,2.48,0,0,0,1.68,1.75,3.94,3.94,0,0,0,1,.07,3.46,3.46,0,0,0,.75,0c.86,0,.78-1.3-.07-1.3a5,5,0,0,1-1.34,0c-.34-.07-.63-.52-.86-1.27h.26a3.32,3.32,0,0,0,2.2-.78c.52-.45-.07-1.34-.67-.89a2.38,2.38,0,0,1-1.86.56.28.28,0,0,1-.19,0c-.07-.45-.11-.86-.15-1.19a8.45,8.45,0,0,1,.56-3.06,22.81,22.81,0,0,1,3.91-5.44,3.38,3.38,0,0,1,2-.86,20.24,20.24,0,0,0,2.76-.26c.52-.15.82-.3.89-.56.11-.48-.48-.86-.67-1a9.73,9.73,0,0,0-3.47-1.08c-2.2,0-3.17,1-6.15,4.7s-6.45,2.72-10.32,5.81c-4.25,3.35-5.74,5.67-7.6,11.59-2.16,6.9-10.22,6.93-14.47,7.23C301.84,170.38,302,171.1,302.42,171.1Z"/><path class="cls-13" d="M58.19,30.67a7,7,0,0,0-5.57,3.64c-.15.28-.32.42-.51.44a1.07,1.07,0,0,1-.81-.52,2.27,2.27,0,0,1-.47-1.12c0-.41-.23-2.34-.48-4.78-.41-4-1-9.44-1.11-11.31-.13-1.66-1.18-2.32-2.18-2.24a2,2,0,0,0-1.82,2.06l0,1.55c.05,2.19.15,5.93.19,8.48-.12-1-.26-2.14-.39-3.28-.36-3-.76-6.38-1-7.63a2,2,0,0,0-2.24-1.83A2.17,2.17,0,0,0,39.8,16c0,1,.09,4.44.24,7.59-.36-3-.78-6.14-1-6.95a1.76,1.76,0,0,0-2-1.14A2.11,2.11,0,0,0,35,17.36c-.06,1.05.14,5,.3,8.19,0,.92.09,1.81.13,2.57-.1-.58-.21-1.22-.32-1.84-.34-2-.7-4.1-.85-4.56a1.69,1.69,0,0,0-1.68-1c-.76.06-1.24.65-1.28,1.57s.12,3.43.3,6.3c.21,3.41.45,7.28.43,9.5v.4c0,2.74-.11,7.33,2.89,10.16,2,1.84,4.95,2.63,8.88,2.33h0l.68-.06c6.27-.65,8.56-6.27,9.66-9l0,0c.88-2.16,3.33-5.07,5.29-7.4.48-.57.93-1.1,1.32-1.58A1.19,1.19,0,0,0,61,31.59C60.66,30.93,59.56,30.57,58.19,30.67Z"/><path class="cls-14" d="M159.42,39.7V35.22L131.48,22.57H118l-15,2.11L77.71,35.22V39.7a10.54,10.54,0,0,0,0,21.09l.4,0c2.78,23,19.9,40.87,40.45,40.87h0c20.55,0,37.67-17.86,40.45-40.87l.4,0a10.54,10.54,0,0,0,0-21.09Z"/><path class="cls-15" d="M131.49,77.4c0,4.87-5.79,8.82-12.92,8.82s-12.92-3.95-12.92-8.82"/><path class="cls-16" d="M75.62,41.49C77.62,18.38,95.55,0,118.56,0c23.8,0,43.09,19.64,43.09,43.88,0,0,.31,3.53-4.6,3.53h-5.67s-3.4.38-3.4-5.67c0,0,1.89-14.36-22.3-14.74,0,0-.57,6.61,12.85,12.1,0,0-22.68,10.21-48.19-5.67,0,0-3.37,2-3.37,7.86,0,0,.13,4.07-2.64,4.07H76.82S75.12,45.43,75.62,41.49Z"/><circle class="cls-15" cx="102.01" cy="56.66" r="4.13"/><path class="cls-15" d="M96,51.32a1,1,0,0,1-.84-1.54A7.08,7.08,0,0,1,101.65,47a1,1,0,0,1,.94,1.06,1,1,0,0,1-1.06.94,5.07,5.07,0,0,0-4.66,1.9A1,1,0,0,1,96,51.32Z"/><path class="cls-15" d="M140.53,51.27a1,1,0,0,1-.75-.34A5.11,5.11,0,0,0,135.13,49a1,1,0,1,1-.44-2,7.09,7.09,0,0,1,6.58,2.58,1,1,0,0,1-.75,1.66Z"/><path class="cls-15" d="M118.55,69.89a11,11,0,0,1-5-1.24,1,1,0,1,1,.9-1.79c4.44,2.23,7.61.16,7.75.07a1,1,0,0,1,1.13,1.65A9,9,0,0,1,118.55,69.89Z"/><circle class="cls-15" cx="134.24" cy="56.66" r="4.13"/><circle class="cls-14" cx="105.25" cy="54.13" r="1.94"/><circle class="cls-14" cx="137.72" cy="53.87" r="1.94"/><path class="cls-14" d="M205.08,69.4l-.36-18.56V46.88l19.62-15.47,15.91,4.32h11.85l24.62,11.15V69.41l-.36,0c-2.45,20.28-17.54,36-35.64,36h0c-18.11,0-33.2-15.74-35.65-36l-.36,0"/><path class="cls-15" d="M253.2,87.39c0,4.7-5.58,8.51-12.47,8.51s-12.47-3.81-12.47-8.51"/><circle class="cls-15" cx="224.75" cy="67.38" r="3.98"/><path class="cls-15" d="M219,62.27a1,1,0,0,1-.84-1.54A6.89,6.89,0,0,1,224.41,58a1,1,0,0,1,.94,1.06,1,1,0,0,1-1.06.94,4.88,4.88,0,0,0-4.47,1.82A1,1,0,0,1,219,62.27Z"/><path class="cls-15" d="M261.92,62.22a1,1,0,0,1-.75-.34A4.9,4.9,0,0,0,256.73,60a1,1,0,0,1-.44-2,6.88,6.88,0,0,1,6.38,2.5,1,1,0,0,1-.75,1.66Z"/><path class="cls-15" d="M240.71,80.18A10.66,10.66,0,0,1,235.9,79a1,1,0,1,1,.9-1.79c4.31,2.16,7.41.09,7.44.07a1,1,0,1,1,1.13,1.65A8.69,8.69,0,0,1,240.71,80.18Z"/><circle class="cls-15" cx="255.85" cy="67.38" r="3.98"/><circle class="cls-14" cx="227.51" cy="64.66" r="1.94"/><circle class="cls-14" cx="258.98" cy="64.4" r="1.94"/><path class="cls-17" d="M218.9,100.75C192.29,58.38,221,35.85,221,35.85c10.29,27.24,28.92,28.25,28.92,28.25-8.16-6.56-5.85-16.81-5.85-16.81,11.71,19,25.19,18.16,25.19,18.16,7.1,16-5,30.6-5,30.6-7.45,11.13.53,6.56.53,6.56,19.52-15.3,19-42.51,19-42.51,0-46.58-40.42-48.79-40.42-48.79C219,10.13,207.6,24.42,207.6,24.42c-31.39,37,2.07,76.34,2.07,76.34a11.77,11.77,0,0,0,9.1,3.82S221.7,105.5,218.9,100.75Z"/></g></g></svg>